<svg xmlns="http://www.w3.org/2000/svg" xmlns:xlink="http://www.w3.org/1999/xlink"><symbol id="icon-add" viewBox="0 0 12 12">
<path d="M6 1V11" stroke="#868686" stroke-width="1.5" stroke-linecap="round" stroke-linejoin="round"/>
<path d="M1 6H11" stroke="#868686" stroke-width="1.5" stroke-linecap="round" stroke-linejoin="round"/>
</symbol><symbol id="icon-all" viewBox="0 0 18 18">
<path d="M12.96 8.10001H7.74001C7.24321 8.10001 7.20001 8.50231 7.20001 9.00001C7.20001 9.49771 7.24321 9.90001 7.74001 9.90001H12.96C13.4568 9.90001 13.5 9.49771 13.5 9.00001C13.5 8.50231 13.4568 8.10001 12.96 8.10001ZM14.76 12.6H7.74001C7.24321 12.6 7.20001 13.0023 7.20001 13.5C7.20001 13.9977 7.24321 14.4 7.74001 14.4H14.76C15.2568 14.4 15.3 13.9977 15.3 13.5C15.3 13.0023 15.2568 12.6 14.76 12.6ZM7.74001 5.40001H14.76C15.2568 5.40001 15.3 4.99771 15.3 4.50001C15.3 4.00231 15.2568 3.60001 14.76 3.60001H7.74001C7.24321 3.60001 7.20001 4.00231 7.20001 4.50001C7.20001 4.99771 7.24321 5.40001 7.74001 5.40001ZM4.86001 8.10001H3.24001C2.74321 8.10001 2.70001 8.50231 2.70001 9.00001C2.70001 9.49771 2.74321 9.90001 3.24001 9.90001H4.86001C5.35681 9.90001 5.40001 9.49771 5.40001 9.00001C5.40001 8.50231 5.35681 8.10001 4.86001 8.10001ZM4.86001 12.6H3.24001C2.74321 12.6 2.70001 13.0023 2.70001 13.5C2.70001 13.9977 2.74321 14.4 3.24001 14.4H4.86001C5.35681 14.4 5.40001 13.9977 5.40001 13.5C5.40001 13.0023 5.35681 12.6 4.86001 12.6ZM4.86001 3.60001H3.24001C2.74321 3.60001 2.70001 4.00231 2.70001 4.50001C2.70001 4.99771 2.74321 5.40001 3.24001 5.40001H4.86001C5.35681 5.40001 5.40001 4.99771 5.40001 4.50001C5.40001 4.00231 5.35681 3.60001 4.86001 3.60001Z" fill="#7C7C7C"/>
</symbol><symbol id="icon-close" viewBox="0 0 10 10">
<path d="M6.24741 5L9.73899 1.50842C9.9047 1.343 9.99791 1.11853 9.99812 0.884393C9.99832 0.650251 9.90551 0.425617 9.74009 0.259907C9.57468 0.0941973 9.35021 0.000986589 9.11606 0.000779811C8.88192 0.000573033 8.65729 0.0933872 8.49158 0.258804L5 3.75038L1.50842 0.258804C1.34271 0.0930948 1.11796 0 0.883613 0C0.649264 0 0.424514 0.0930948 0.258804 0.258804C0.0930948 0.424514 0 0.649264 0 0.883613C0 1.11796 0.0930948 1.34271 0.258804 1.50842L3.75038 5L0.258804 8.49158C0.0930948 8.65729 0 8.88204 0 9.11639C0 9.35074 0.0930948 9.57549 0.258804 9.7412C0.424514 9.90691 0.649264 10 0.883613 10C1.11796 10 1.34271 9.90691 1.50842 9.7412L5 6.24962L8.49158 9.7412C8.65729 9.90691 8.88204 10 9.11639 10C9.35074 10 9.57549 9.90691 9.7412 9.7412C9.90691 9.57549 10 9.35074 10 9.11639C10 8.88204 9.90691 8.65729 9.7412 8.49158L6.24741 5Z" fill="#E3E3E3"/>
</symbol><symbol id="icon-edit" viewBox="0 0 15 15">
<path d="M0 12.0504V14.5834C0 14.8167 0.183308 15 0.41661 15H2.9496C3.05792 15 3.16624 14.9583 3.24123 14.875L12.34 5.78458L9.21542 2.66001L0.124983 11.7504C0.0416611 11.8338 0 11.9338 0 12.0504ZM14.7563 3.36825C14.8336 3.29116 14.8949 3.1996 14.9367 3.0988C14.9785 2.99801 15 2.88995 15 2.78083C15 2.6717 14.9785 2.56365 14.9367 2.46285C14.8949 2.36205 14.8336 2.27049 14.7563 2.19341L12.8066 0.24367C12.7295 0.166428 12.6379 0.105146 12.5372 0.0633343C12.4364 0.021522 12.3283 0 12.2192 0C12.1101 0 12.002 0.021522 11.9012 0.0633343C11.8004 0.105146 11.7088 0.166428 11.6318 0.24367L10.107 1.76846L13.2315 4.89304L14.7563 3.36825Z" fill="#DFDFDF"/>
</symbol></svg>